<svg id="visual" viewBox="0 0 900 600" width="900" height="600" xmlns="http://www.w3.org/2000/svg" xmlns:xlink="http://www.w3.org/1999/xlink" version="1.1"><rect x="0" y="0" width="900" height="600" fill="#001220"></rect><path d="M0 452L11.5 449.7C23 447.3 46 442.7 69 439.8C92 437 115 436 138.2 438.7C161.3 441.3 184.7 447.7 207.8 449C231 450.3 254 446.7 277 446.3C300 446 323 449 346 448.7C369 448.3 392 444.7 415.2 446.2C438.3 447.7 461.7 454.3 484.8 456.3C508 458.3 531 455.7 554 449.5C577 443.3 600 433.7 623 430.5C646 427.3 669 430.7 692.2 434C715.3 437.3 738.7 440.7 761.8 442.5C785 444.3 808 444.7 831 446.2C854 447.7 877 450.3 888.5 451.7L900 453L900 601L888.5 601C877 601 854 601 831 601C808 601 785 601 761.8 601C738.7 601 715.3 601 692.2 601C669 601 646 601 623 601C600 601 577 601 554 601C531 601 508 601 484.8 601C461.7 601 438.3 601 415.2 601C392 601 369 601 346 601C323 601 300 601 277 601C254 601 231 601 207.8 601C184.7 601 161.3 601 138.2 601C115 601 92 601 69 601C46 601 23 601 11.5 601L0 601Z" fill="#caaca9"></path><path d="M0 483L11.5 483.8C23 484.7 46 486.3 69 486.3C92 486.3 115 484.7 138.2 479.2C161.3 473.7 184.7 464.3 207.8 460C231 455.7 254 456.3 277 461.8C300 467.3 323 477.7 346 478.2C369 478.7 392 469.3 415.2 469C438.3 468.7 461.7 477.3 484.8 477.8C508 478.3 531 470.7 554 466.2C577 461.7 600 460.3 623 462C646 463.7 669 468.3 692.2 473.2C715.3 478 738.7 483 761.8 480.5C785 478 808 468 831 467.8C854 467.7 877 477.3 888.5 482.2L900 487L900 601L888.5 601C877 601 854 601 831 601C808 601 785 601 761.8 601C738.7 601 715.3 601 692.2 601C669 601 646 601 623 601C600 601 577 601 554 601C531 601 508 601 484.8 601C461.7 601 438.3 601 415.2 601C392 601 369 601 346 601C323 601 300 601 277 601C254 601 231 601 207.8 601C184.7 601 161.3 601 138.2 601C115 601 92 601 69 601C46 601 23 601 11.5 601L0 601Z" fill="#ad7d84"></path><path d="M0 501L11.5 498.2C23 495.3 46 489.7 69 490.7C92 491.7 115 499.3 138.2 501.8C161.3 504.3 184.7 501.7 207.8 500C231 498.3 254 497.7 277 499.7C300 501.7 323 506.3 346 504.8C369 503.3 392 495.7 415.2 496.2C438.3 496.7 461.7 505.3 484.8 505.5C508 505.7 531 497.3 554 493.7C577 490 600 491 623 493.5C646 496 669 500 692.2 502.5C715.3 505 738.7 506 761.8 504.3C785 502.7 808 498.3 831 496.7C854 495 877 496 888.5 496.5L900 497L900 601L888.5 601C877 601 854 601 831 601C808 601 785 601 761.8 601C738.7 601 715.3 601 692.2 601C669 601 646 601 623 601C600 601 577 601 554 601C531 601 508 601 484.8 601C461.7 601 438.3 601 415.2 601C392 601 369 601 346 601C323 601 300 601 277 601C254 601 231 601 207.8 601C184.7 601 161.3 601 138.2 601C115 601 92 601 69 601C46 601 23 601 11.5 601L0 601Z" fill="#8b516a"></path><path d="M0 535L11.5 535.5C23 536 46 537 69 537.2C92 537.3 115 536.7 138.2 533.2C161.3 529.7 184.7 523.3 207.8 522C231 520.7 254 524.3 277 524.2C300 524 323 520 346 522.7C369 525.3 392 534.7 415.2 538.2C438.3 541.7 461.7 539.3 484.8 535.8C508 532.3 531 527.7 554 528.2C577 528.7 600 534.3 623 536.5C646 538.7 669 537.3 692.2 535.7C715.3 534 738.7 532 761.8 531.8C785 531.7 808 533.3 831 531C854 528.7 877 522.3 888.5 519.2L900 516L900 601L888.5 601C877 601 854 601 831 601C808 601 785 601 761.8 601C738.7 601 715.3 601 692.2 601C669 601 646 601 623 601C600 601 577 601 554 601C531 601 508 601 484.8 601C461.7 601 438.3 601 415.2 601C392 601 369 601 346 601C323 601 300 601 277 601C254 601 231 601 207.8 601C184.7 601 161.3 601 138.2 601C115 601 92 601 69 601C46 601 23 601 11.5 601L0 601Z" fill="#622957"></path><path d="M0 557L11.5 558C23 559 46 561 69 562.5C92 564 115 565 138.2 565.3C161.3 565.7 184.7 565.3 207.8 562.5C231 559.7 254 554.3 277 552.3C300 550.3 323 551.7 346 551.5C369 551.3 392 549.7 415.2 552.2C438.3 554.7 461.7 561.3 484.8 562.5C508 563.7 531 559.3 554 558C577 556.7 600 558.3 623 560.7C646 563 669 566 692.2 566.3C715.3 566.7 738.7 564.3 761.8 563C785 561.7 808 561.3 831 562.7C854 564 877 567 888.5 568.5L900 570L900 601L888.5 601C877 601 854 601 831 601C808 601 785 601 761.8 601C738.7 601 715.3 601 692.2 601C669 601 646 601 623 601C600 601 577 601 554 601C531 601 508 601 484.8 601C461.7 601 438.3 601 415.2 601C392 601 369 601 346 601C323 601 300 601 277 601C254 601 231 601 207.8 601C184.7 601 161.3 601 138.2 601C115 601 92 601 69 601C46 601 23 601 11.5 601L0 601Z" fill="#300848"></path></svg>