<svg id="visual" viewBox="0 0 1590 300" width="1590" height="300" xmlns="http://www.w3.org/2000/svg" xmlns:xlink="http://www.w3.org/1999/xlink" version="1.1"><path d="M0 187L12 189.7C24 192.3 48 197.7 72.2 192.3C96.3 187 120.7 171 144.8 171C169 171 193 187 217 189.8C241 192.7 265 182.3 289 178.7C313 175 337 178 361.2 176.7C385.3 175.3 409.7 169.7 433.8 168.3C458 167 482 170 506 176.7C530 183.3 554 193.7 578 196.5C602 199.3 626 194.7 650.2 188.2C674.3 181.7 698.7 173.3 722.8 167C747 160.7 771 156.3 795 158C819 159.7 843 167.3 867.2 173.3C891.3 179.3 915.7 183.7 939.8 187.3C964 191 988 194 1012 189.7C1036 185.3 1060 173.7 1084 168.3C1108 163 1132 164 1156.2 169C1180.3 174 1204.7 183 1228.8 188C1253 193 1277 194 1301 191C1325 188 1349 181 1373 182.8C1397 184.7 1421 195.3 1445.2 197.3C1469.3 199.3 1493.7 192.7 1517.8 185.3C1542 178 1566 170 1578 166L1590 162L1590 301L1578 301C1566 301 1542 301 1517.8 301C1493.7 301 1469.3 301 1445.2 301C1421 301 1397 301 1373 301C1349 301 1325 301 1301 301C1277 301 1253 301 1228.8 301C1204.7 301 1180.3 301 1156.2 301C1132 301 1108 301 1084 301C1060 301 1036 301 1012 301C988 301 964 301 939.8 301C915.7 301 891.3 301 867.2 301C843 301 819 301 795 301C771 301 747 301 722.8 301C698.7 301 674.3 301 650.2 301C626 301 602 301 578 301C554 301 530 301 506 301C482 301 458 301 433.8 301C409.7 301 385.3 301 361.2 301C337 301 313 301 289 301C265 301 241 301 217 301C193 301 169 301 144.8 301C120.7 301 96.3 301 72.2 301C48 301 24 301 12 301L0 301Z" fill="#0066FF" stroke-linecap="round" stroke-linejoin="miter"></path></svg>